<?xml version="1.0" standalone="no"?>
<!DOCTYPE svg PUBLIC "-//W3C//DTD SVG 20010904//EN"
 "http://www.w3.org/TR/2001/REC-SVG-20010904/DTD/svg10.dtd">
<svg version="1.0" xmlns="http://www.w3.org/2000/svg"
 width="1024.000000pt" height="1024.000000pt" viewBox="0 0 1024.000000 1024.000000"
 preserveAspectRatio="xMidYMid meet">
<metadata>
Created by potrace 1.11, written by Peter Selinger 2001-2013
</metadata>
<g transform="translate(0.000000,1024.000000) scale(0.100000,-0.100000)"
fill="#000000" stroke="none">
<path d="M1559 7657 c-43 -29 -75 -77 -94 -140 -13 -45 -15 -330 -13 -2306 l3
-2256 29 -50 c42 -71 108 -122 171 -132 11 -2 76 -15 145 -29 69 -14 132 -27
140 -29 8 -2 62 -13 120 -25 58 -12 116 -24 130 -26 14 -3 158 -32 320 -65
162 -34 304 -63 315 -65 11 -2 31 -6 45 -9 14 -3 36 -7 50 -10 14 -3 93 -19
175 -36 83 -17 159 -33 170 -35 11 -2 99 -20 195 -40 96 -20 186 -38 198 -40
34 -7 342 -70 507 -104 77 -16 151 -31 165 -34 14 -3 36 -7 50 -10 14 -4 59
-13 100 -21 41 -8 129 -25 195 -39 66 -14 131 -27 145 -30 14 -2 61 -12 105
-21 44 -9 89 -19 100 -21 11 -2 31 -6 45 -9 54 -12 126 -27 145 -30 11 -2 87
-17 169 -34 83 -17 152 -28 155 -25 3 3 6 182 6 397 l0 392 1565 5 c861 3
1566 6 1567 8 1 1 16 15 32 31 34 33 65 90 77 141 13 57 12 4476 -1 4535 -20
86 -67 155 -122 176 -15 5 -1394 9 -3547 9 l-3523 0 -34 -23z m2401 -1040 c14
-3 39 -8 55 -11 17 -3 42 -8 56 -11 63 -12 221 -70 316 -116 201 -98 365 -237
497 -424 72 -100 135 -221 184 -350 14 -37 51 -181 57 -221 2 -16 7 -47 10
-69 10 -68 12 -248 4 -320 -14 -121 -18 -143 -34 -207 -37 -143 -108 -309
-186 -428 -23 -36 -44 -67 -48 -70 -3 -3 -23 -27 -45 -53 -176 -220 -464 -400
-747 -466 -75 -18 -108 -24 -214 -37 -39 -4 -237 -5 -295 0 -291 23 -554 130
-790 322 -245 198 -418 510 -474 854 -14 82 -15 363 -3 420 3 14 8 40 11 58
14 81 19 101 47 184 162 497 606 868 1129 943 25 4 47 9 49 11 6 5 389 -3 421
-9z m3235 -2 c299 -49 525 -158 747 -359 l50 -46 -89 -103 c-49 -56 -100 -115
-114 -131 -13 -15 -42 -48 -64 -73 -39 -43 -41 -43 -60 -26 -159 146 -377 269
-530 298 -313 60 -595 -20 -811 -230 -129 -126 -210 -269 -252 -445 -88 -367
1 -726 240 -972 230 -237 560 -318 908 -222 107 30 274 130 411 248 l76 65
152 -156 152 -156 -43 -44 c-122 -125 -331 -269 -483 -332 -87 -36 -241 -77
-345 -90 -72 -9 -395 -8 -453 3 -194 33 -404 118 -567 230 -148 101 -321 295
-407 457 -66 124 -134 314 -147 412 -4 25 -11 68 -16 94 -10 51 -6 364 5 423
3 19 17 78 30 131 115 461 440 816 885 969 76 26 77 26 200 49 117 22 405 25
525 6z"/>
<path d="M3697 6194 c-1 -1 -38 -4 -82 -7 -163 -12 -330 -79 -469 -187 -11 -8
-48 -43 -82 -77 -242 -241 -332 -640 -224 -996 102 -336 371 -579 715 -648 85
-16 265 -13 360 6 348 72 611 336 699 700 36 153 37 305 1 484 -19 97 -99 270
-166 359 -138 182 -346 312 -564 351 -52 9 -182 20 -188 15z"/>
</g>
</svg>
